<?xml version="1.0" encoding="utf-8"?>
<!-- Generator: Adobe Illustrator 25.2.3, SVG Export Plug-In . SVG Version: 6.00 Build 0)  -->
<svg version="1.1" id="Layer_1" xmlns="http://www.w3.org/2000/svg" xmlns:xlink="http://www.w3.org/1999/xlink" x="0px" y="0px"
	 viewBox="0 0 177.4 72.1" style="enable-background:new 0 0 177.4 72.1;" xml:space="preserve">
<style type="text/css">
	.st0{fill:url(#SVGID_1_);}
	.st1{fill:#6016C7;}
	.st2{fill:#FFFFFF;}
	.st3{fill:none;}
	.st4{fill:#575756;}
</style>
<g>
	<linearGradient id="SVGID_1_" gradientUnits="userSpaceOnUse" x1="0.4797" y1="29.0363" x2="144.4625" y2="27.8561">
		<stop  offset="0" style="stop-color:#6016C7"/>
		<stop  offset="0.2246" style="stop-color:#C9B4EB"/>
		<stop  offset="0.3313" style="stop-color:#F8FBFB"/>
		<stop  offset="0.443" style="stop-color:#FFFFFF"/>
		<stop  offset="0.9955" style="stop-color:#ECECEC;stop-opacity:0"/>
	</linearGradient>
	<polygon class="st0" points="69.8,56.9 8.7,41.8 8.7,15 69.8,0 	"/>
	<path class="st1" d="M2.7,28.4C2.7,18.1,10.2,9.6,20,7.8C8.8,8.1,0,17.2,0,28.5C0,39.8,8.8,48.8,20,49C10.2,47.3,2.7,38.8,2.7,28.4
		z"/>
	<path class="st2" d="M23.3,41.9c6.7-0.7,12.1-6.4,12.1-13.3c0-6.9-5.3-12.7-12-13.5c5.5,2,9.7,8.3,8.9,14.4
		C31.6,35.6,28.8,39.9,23.3,41.9z"/>
	<path class="st3" d="M35.5,28.5c0-7.3-6.1-13.5-13.4-13.5v26.8C29.4,41.9,35.5,35.9,35.5,28.5z"/>
	<path class="st1" d="M22.1,7.5V15c7.3,0,13.4,6.1,13.4,13.5c0,7.3-6.1,13.3-13.4,13.3v7.6c11.7,0,21-9.3,21-20.9
		C43.1,16.9,33.7,7.5,22.1,7.5z"/>
	<path class="st2" d="M8.7,28.5c0-7.3,6-13.5,13.3-13.5V7.5c-11.7,0-20.9,9.4-20.9,21c0,11.7,9.3,20.9,20.9,20.9v-7.6
		C14.7,41.9,8.7,35.9,8.7,28.5z"/>
</g>
<path class="st1" d="M52.3,9.5c0-0.6,0.5-1.1,1.1-1.1h13.5c7,0,12.8,5.7,12.8,12.7c0,7.1-5.8,12.9-12.8,12.9h-7.2v13.5
	c0,0.6-0.5,1.1-1.1,1.1h-5.3c-0.6,0-1.1-0.5-1.1-1.1V9.5z M66.6,27c3.2,0,5.7-2.6,5.7-6c0-3.2-2.5-5.6-5.7-5.6h-6.9V27H66.6z"/>
<path class="st1" d="M86.1,9.5c0-0.6,0.5-1.1,1.1-1.1h23.3c0.6,0,1.1,0.5,1.1,1.1v4.7c0,0.6-0.5,1.1-1.1,1.1h-17v9.4h14.2
	c0.6,0,1.1,0.5,1.1,1.1v4.8c0,0.6-0.5,1.1-1.1,1.1H93.5v10h17c0.6,0,1.1,0.5,1.1,1.1v4.7c0,0.6-0.5,1.1-1.1,1.1H87.2
	c-0.6,0-1.1-0.5-1.1-1.1V9.5z"/>
<path class="st1" d="M119.1,8.8c0-0.6,0.5-1,1.1-1h0.9c0.4,0,0.7,0.1,1,0.4l23.4,24.9h0.1V9.5c0-0.6,0.5-1.1,1.1-1.1h5.3
	c0.6,0,1.1,0.5,1.1,1.1V48c0,0.6-0.5,1-1.1,1H151c-0.4,0-0.7-0.1-1-0.4l-23.5-25.9h-0.1v24.6c0,0.6-0.5,1.1-1.1,1.1h-5.2
	c-0.6,0-1.1-0.5-1.1-1.1V8.8z"/>
<g>
	<g>
		<path class="st4" d="M22,57.8c0-0.2,0.2-0.4,0.4-0.4h4.9c2.5,0,4.6,2.1,4.6,4.6c0,2.6-2.1,4.7-4.6,4.7h-2.6v4.9
			c0,0.2-0.2,0.4-0.4,0.4h-1.9c-0.2,0-0.4-0.2-0.4-0.4V57.8z M27.1,64.1c1.2,0,2.1-0.9,2.1-2.2c0-1.1-0.9-2-2.1-2h-2.5v4.2H27.1z"/>
		<path class="st4" d="M34.6,62.8c0-0.3,0.2-0.5,0.5-0.5h0.8c0.2,0,0.3,0.1,0.4,0.3l0.4,0.9c0.3-0.5,1.2-1.5,2.7-1.5
			c1.1,0,2.1,0.3,1.8,0.9l-0.6,1.4c-0.1,0.2-0.3,0.3-0.6,0.2c-0.2-0.1-0.5-0.2-0.9-0.2c-1,0-1.7,0.7-1.8,1v6c0,0.4-0.2,0.5-0.5,0.5
			H35c-0.2,0-0.5-0.2-0.5-0.5V62.8z"/>
		<path class="st4" d="M47.7,62.1c2.7,0,4.9,2.3,4.9,5c0,2.7-2.2,5-4.9,5c-2.7,0-4.9-2.3-4.9-5C42.8,64.4,45,62.1,47.7,62.1z
			 M47.7,69.7c1.4,0,2.5-1.2,2.5-2.7c0-1.5-1.1-2.6-2.5-2.6c-1.4,0-2.5,1.2-2.5,2.6C45.2,68.5,46.3,69.7,47.7,69.7z"/>
		<path class="st4" d="M60.2,62.1c1.5,0,2.7,0.6,3.6,1.6c0.2,0.2,0.1,0.5-0.1,0.7l-0.9,1c-0.2,0.2-0.4,0.1-0.6-0.1
			c-0.5-0.4-1-0.8-1.9-0.8c-1.5,0-2.5,1.2-2.5,2.6c0,1.5,1,2.7,2.5,2.7c1.1,0,1.6-0.6,2-1.1c0.1-0.2,0.4-0.2,0.6-0.1l0.9,0.8
			c0.2,0.2,0.3,0.4,0.2,0.7c-0.8,1.3-2.1,2-3.8,2c-2.8,0-5.1-2.1-5.1-5C55.1,64.3,57.3,62.1,60.2,62.1z"/>
		<path class="st4" d="M66.8,62.8c0-0.3,0.2-0.5,0.5-0.5h1.7c0.2,0,0.5,0.2,0.5,0.5v5.1c0,1.3,0.4,1.9,1.6,1.9c1.1,0,1.6-1,1.7-1.8
			v-5.2c0-0.4,0.1-0.5,0.5-0.5h1.6c0.2,0,0.5,0.2,0.5,0.5v8.7c0,0.2-0.2,0.5-0.5,0.5h-0.7c-0.2,0-0.4-0.2-0.5-0.4l-0.3-0.8
			c-0.5,0.5-1.5,1.4-3,1.4c-3,0-3.6-1.8-3.6-4.3V62.8z"/>
		<path class="st4" d="M79,62.8c0-0.3,0.2-0.5,0.5-0.5h0.8c0.2,0,0.3,0.1,0.4,0.3l0.4,0.9c0.3-0.5,1.2-1.5,2.7-1.5
			c1.1,0,2.1,0.3,1.8,0.9l-0.6,1.4c-0.1,0.2-0.3,0.3-0.6,0.2c-0.2-0.1-0.5-0.2-0.9-0.2c-1,0-1.7,0.7-1.8,1v6c0,0.4-0.2,0.5-0.5,0.5
			h-1.6c-0.2,0-0.5-0.2-0.5-0.5V62.8z"/>
		<path class="st4" d="M92,62.1c2.5,0,4.4,1.8,4.4,4.4c0,0.1,0,0.5,0,0.6c0,0.2-0.2,0.4-0.5,0.4h-6.1c0,1.2,1,2.2,2.4,2.2
			c1,0,1.6-0.4,2.1-0.7c0.2-0.2,0.5-0.2,0.6,0l0.8,1.1c0.2,0.2,0.2,0.4,0,0.6c-0.8,0.7-2,1.3-3.6,1.3c-2.9,0-4.8-2.3-4.8-5
			C87.2,64.4,89.2,62.1,92,62.1z M93.8,65.9c0-0.9-0.8-1.7-1.8-1.7c-1.2,0-1.9,0.7-2,1.7H93.8z"/>
		<path class="st4" d="M99.4,62.8c0-0.3,0.2-0.5,0.5-0.5h0.7c0.2,0,0.4,0.1,0.4,0.3l0.4,0.9c0.4-0.5,1.2-1.4,2.9-1.4
			c1.4,0,2.1,0.5,2.9,1.5c0.4-0.4,1.4-1.5,3.1-1.5c3.1,0,3.8,1.9,3.8,4.4v4.9c0,0.2-0.2,0.5-0.5,0.5h-1.7c-0.2,0-0.5-0.2-0.5-0.5v-5
			c0-1.2-0.5-2-1.7-2c-1.4,0-1.8,1-1.8,1s0,0.5,0,0.9v5.1c0,0.2-0.2,0.5-0.5,0.5h-1.7c-0.3,0-0.5-0.2-0.5-0.5v-5c0-1.2-0.4-2-1.6-2
			c-1.2,0-1.6,0.8-1.8,1.5v5.5c0,0.2-0.2,0.5-0.5,0.5h-1.7c-0.2,0-0.5-0.2-0.5-0.5V62.8z"/>
		<path class="st4" d="M121.8,62.1c2.5,0,4.4,1.8,4.4,4.4c0,0.1,0,0.5,0,0.6c0,0.2-0.2,0.4-0.5,0.4h-6.1c0,1.2,1,2.2,2.4,2.2
			c1,0,1.6-0.4,2.1-0.7c0.2-0.2,0.5-0.2,0.6,0l0.8,1.1c0.2,0.2,0.2,0.4,0,0.6c-0.8,0.7-2,1.3-3.6,1.3c-2.9,0-4.8-2.3-4.8-5
			C117,64.4,119,62.1,121.8,62.1z M123.6,65.9c0-0.9-0.8-1.7-1.8-1.7c-1.2,0-1.9,0.7-2,1.7H123.6z"/>
		<path class="st4" d="M129.2,62.8c0-0.3,0.2-0.5,0.5-0.5h0.8c0.2,0,0.3,0.1,0.4,0.3l0.4,0.9c0.4-0.4,1.2-1.4,3.1-1.4
			c3,0,3.8,2.1,3.8,4.4v5c0,0.2-0.2,0.5-0.5,0.5H136c-0.2,0-0.5-0.2-0.5-0.5v-5c0-1.2-0.5-2-1.7-2c-1.2,0-1.8,0.8-2.1,1.5v5.5
			c0,0.4-0.1,0.5-0.6,0.5h-1.5c-0.2,0-0.5-0.2-0.5-0.5V62.8z"/>
		<path class="st4" d="M142.3,64.6h-0.9c-0.2,0-0.4-0.2-0.4-0.5v-1.4c0-0.3,0.2-0.5,0.4-0.5h0.9v-2.7c0-0.2,0.2-0.5,0.5-0.5h1.7
			c0.2,0,0.4,0.2,0.4,0.5v2.7h2.2c0.2,0,0.5,0.2,0.5,0.5v1.4c0,0.2-0.2,0.5-0.5,0.5h-2.2v4.3c0,0.6,0.3,0.8,0.8,0.8
			c0.4,0,1.2-0.2,1.4-0.3c0.3-0.1,0.5,0,0.5,0.2l0.3,1.3c0.1,0.2,0,0.4-0.3,0.6c-0.3,0.2-1.7,0.6-2.7,0.6c-2.1,0-2.7-1.4-2.7-3.1
			V64.6z"/>
		<path class="st4" d="M152.2,68.2c1.1,0,2,0.9,2,2c0,1.1-0.9,2-2,2c-1.1,0-2-0.9-2-2C150.2,69.1,151.1,68.2,152.2,68.2z"/>
		<path class="st4" d="M161.6,62.1c2.5,0,4.4,1.8,4.4,4.4c0,0.1,0,0.5,0,0.6c0,0.2-0.2,0.4-0.5,0.4h-6.1c0,1.2,1,2.2,2.4,2.2
			c1,0,1.6-0.4,2.1-0.7c0.2-0.2,0.5-0.2,0.6,0l0.8,1.1c0.2,0.2,0.2,0.4,0,0.6c-0.8,0.7-2,1.3-3.6,1.3c-2.9,0-4.8-2.3-4.8-5
			C156.8,64.4,158.8,62.1,161.6,62.1z M163.4,65.9c0-0.9-0.8-1.7-1.8-1.7c-1.2,0-1.9,0.7-2,1.7H163.4z"/>
		<path class="st4" d="M168.9,62.8c0-0.3,0.2-0.5,0.5-0.5h1.7c0.2,0,0.5,0.2,0.5,0.5v5.1c0,1.3,0.4,1.9,1.6,1.9c1.1,0,1.6-1,1.7-1.8
			v-5.2c0-0.4,0.1-0.5,0.5-0.5h1.6c0.2,0,0.5,0.2,0.5,0.5v8.7c0,0.2-0.2,0.5-0.5,0.5h-0.7c-0.2,0-0.4-0.2-0.5-0.4l-0.3-0.8
			c-0.5,0.5-1.5,1.4-3,1.4c-3,0-3.6-1.8-3.6-4.3V62.8z"/>
	</g>
</g>
</svg>
