<svg width="25" height="24" viewBox="0 0 25 24" fill="none" xmlns="http://www.w3.org/2000/svg">
<path d="M18.3857 11.62C18.3381 11.4973 18.2667 11.3851 18.1757 11.29L13.1757 6.29C13.0825 6.19676 12.9718 6.1228 12.8499 6.07234C12.7281 6.02188 12.5976 5.99591 12.4657 5.99591C12.1994 5.99591 11.944 6.1017 11.7557 6.29C11.6625 6.38324 11.5885 6.49393 11.538 6.61575C11.4876 6.73758 11.4616 6.86814 11.4616 7C11.4616 7.2663 11.5674 7.5217 11.7557 7.71L15.0557 11H7.4657C7.20048 11 6.94613 11.1054 6.75859 11.2929C6.57106 11.4804 6.4657 11.7348 6.4657 12C6.4657 12.2652 6.57106 12.5196 6.75859 12.7071C6.94613 12.8946 7.20048 13 7.4657 13H15.0557L11.7557 16.29C11.662 16.383 11.5876 16.4936 11.5368 16.6154C11.486 16.7373 11.4599 16.868 11.4599 17C11.4599 17.132 11.486 17.2627 11.5368 17.3846C11.5876 17.5064 11.662 17.617 11.7557 17.71C11.8487 17.8037 11.9593 17.8781 12.0811 17.9289C12.203 17.9797 12.3337 18.0058 12.4657 18.0058C12.5977 18.0058 12.7284 17.9797 12.8503 17.9289C12.9721 17.8781 13.0827 17.8037 13.1757 17.71L18.1757 12.71C18.2667 12.6149 18.3381 12.5028 18.3857 12.38C18.4857 12.1365 18.4857 11.8635 18.3857 11.62Z" fill="#A7A9AB"/>
</svg>
