<svg width="32" height="33" viewBox="0 0 32 33" fill="none" xmlns="http://www.w3.org/2000/svg">
<path d="M12.0002 13.6184H13.3335C13.6871 13.6184 14.0263 13.4777 14.2763 13.2273C14.5264 12.9769 14.6668 12.6373 14.6668 12.2831C14.6668 11.929 14.5264 11.5893 14.2763 11.3389C14.0263 11.0885 13.6871 10.9478 13.3335 10.9478H12.0002C11.6465 10.9478 11.3074 11.0885 11.0574 11.3389C10.8073 11.5893 10.6668 11.929 10.6668 12.2831C10.6668 12.6373 10.8073 12.9769 11.0574 13.2273C11.3074 13.4777 11.6465 13.6184 12.0002 13.6184ZM12.0002 16.289C11.6465 16.289 11.3074 16.4297 11.0574 16.6801C10.8073 16.9305 10.6668 17.2702 10.6668 17.6243C10.6668 17.9784 10.8073 18.3181 11.0574 18.5685C11.3074 18.8189 11.6465 18.9596 12.0002 18.9596H20.0002C20.3538 18.9596 20.6929 18.8189 20.943 18.5685C21.193 18.3181 21.3335 17.9784 21.3335 17.6243C21.3335 17.2702 21.193 16.9305 20.943 16.6801C20.6929 16.4297 20.3538 16.289 20.0002 16.289H12.0002ZM26.6668 12.203C26.6529 12.0803 26.6261 11.9595 26.5868 11.8425V11.7223C26.5227 11.585 26.4372 11.4588 26.3335 11.3484L18.3335 3.33662C18.2233 3.23276 18.0973 3.14712 17.9602 3.08292C17.9204 3.07726 17.88 3.07726 17.8402 3.08292C17.7047 3.00513 17.5551 2.95519 17.4002 2.93604H9.3335C8.27263 2.93604 7.25521 3.35808 6.50507 4.10933C5.75492 4.86058 5.3335 5.8795 5.3335 6.94193V25.6361C5.3335 26.6985 5.75492 27.7174 6.50507 28.4687C7.25521 29.2199 8.27263 29.642 9.3335 29.642H22.6668C23.7277 29.642 24.7451 29.2199 25.4953 28.4687C26.2454 27.7174 26.6668 26.6985 26.6668 25.6361V12.2831C26.6668 12.2831 26.6668 12.2831 26.6668 12.203ZM18.6668 7.4894L22.1202 10.9478H20.0002C19.6465 10.9478 19.3074 10.8071 19.0574 10.5567C18.8073 10.3063 18.6668 9.96666 18.6668 9.61252V7.4894ZM24.0002 25.6361C24.0002 25.9902 23.8597 26.3299 23.6096 26.5803C23.3596 26.8307 23.0205 26.9714 22.6668 26.9714H9.3335C8.97987 26.9714 8.64074 26.8307 8.39069 26.5803C8.14064 26.3299 8.00016 25.9902 8.00016 25.6361V6.94193C8.00016 6.58778 8.14064 6.24815 8.39069 5.99773C8.64074 5.74731 8.97987 5.60663 9.3335 5.60663H16.0002V9.61252C16.0002 10.6749 16.4216 11.6939 17.1717 12.4451C17.9219 13.1964 18.9393 13.6184 20.0002 13.6184H24.0002V25.6361ZM20.0002 21.6302H12.0002C11.6465 21.6302 11.3074 21.7709 11.0574 22.0213C10.8073 22.2717 10.6668 22.6113 10.6668 22.9655C10.6668 23.3196 10.8073 23.6593 11.0574 23.9097C11.3074 24.1601 11.6465 24.3008 12.0002 24.3008H20.0002C20.3538 24.3008 20.6929 24.1601 20.943 23.9097C21.193 23.6593 21.3335 23.3196 21.3335 22.9655C21.3335 22.6113 21.193 22.2717 20.943 22.0213C20.6929 21.7709 20.3538 21.6302 20.0002 21.6302Z" fill="#7291FF"/>
</svg>
