<svg viewBox="0 0 133 171" fill="none" xmlns="http://www.w3.org/2000/svg"><path fill-rule="evenodd" clip-rule="evenodd" d="M118.041 112.567c4.76 0 8.329 1.031 10.709 3.094 2.38 2.063 3.57 4.998 3.57 8.805 0 7.933-4.76 11.9-14.279 11.9h-12.137v18.801c0 4.918-1.389 8.726-4.165 11.423-2.777 2.697-6.386 4.046-10.829 4.046-4.442 0-8.051-1.349-10.828-4.046-2.776-2.697-4.165-6.505-4.165-11.423v-18.801H13.565c-4.284 0-7.615-1.23-9.995-3.689-2.38-2.459-3.57-5.513-3.57-9.162 0-3.808 1.27-7.457 3.808-10.948L77.345 6.902c1.587-2.222 3.57-3.927 5.95-5.117C85.675.595 88.134 0 90.672 0c4.126 0 7.695 1.349 10.71 4.046 3.014 2.697 4.522 6.505 4.522 11.423v97.098h12.137zm-86.389 0h44.265V48.549l-44.265 64.018z" fill="currentColor"/></svg>