<svg viewBox="0 0 254 21" fill="none" xmlns="http://www.w3.org/2000/svg"><path fill-rule="evenodd" clip-rule="evenodd" d="M216.255 1.84c-.287 1.813 2.14 1 3.11 1.541.709.397 1.334.954 2.103 1.215 1.944.66 3.772-.68 5.641-.966 1.619-.245 3.4.03 5.027.132 1.667.106 3.587.398 4.44 1.832.197.33.321.701.55 1.008.738.987 2.24.951 3.405.548 1.163-.403 2.281-1.08 3.512-1.057 1.232.025 2.536 1.24 2.036 2.366a19.857 19.857 0 016.666.46c.534.128 1.159.386 1.232.93.082.613-.6 1.027-1.181 1.24a21.311 21.311 0 01-11.902.792c-1.284-.286-2.121-.547-3.373-.138-1.325.431-2.688.074-4.024-.079-1.172-.135-1.949.126-3.046.27-2.32.305-5.106-.873-7.511-.949-.275-.009-.596.01-.753.233-.19.271-.012.638-.003.968.021.761-.887 1.234-1.646 1.174-.757-.06-1.455-.449-2.207-.567-1.46-.228-2.864.577-4.319.841-1.594.291-3.223-.07-4.835-.225-1.985-.19-3.423.093-5.231.591-1.662.456-3.247-.197-4.94.668-.363.184-.723.421-.91.783-.434.833.059 1.11-.734 1.926-.402.413-.854.804-1.354 1.091-1.153.663-2.487.76-3.791.718l-21.061-.68c-2.159-.07-4.304-.06-6.462-.047-1.822.011-3.214-.505-5.126-.076a71.603 71.603 0 01-21.168 1.53c-1.055-.082-1.904.25-2.906.301-.933.048-2.035-.299-2.963-.432-2.273-.324-4.547-.649-6.832-.886a88.694 88.694 0 00-19.354.122c-2.255.263-4.577.608-6.766.004-1.082-.298-2.138-.827-3.26-.767-1.95.105-3.553 1.963-5.499 1.806-2.018-.162-3.35-2.413-5.355-2.698-1.094-.155-2.166.307-3.196.704-4.303 1.66-9.11 2.188-13.669 1.67-1.707-.196-2.614-.584-3.822-1.835-.91-.944-1.73-2.049-3.103-2.307-1.851-.346-4.027.16-5.91.158a53.686 53.686 0 01-6.261-.372c-3.597-.425-7.176-1.217-10.798-1.12-2.224.061-4.423.456-6.638.652a37.072 37.072 0 01-14.69-1.676c1.11-2.009 5.328-1.126 5.526-3.414a5.728 5.728 0 01-4.982-.462c-.64-.395-1.21-.92-1.918-1.176-1.319-.475-2.752.095-4.09.505a18.135 18.135 0 01-9.132.375C1.32 8.746-.447 7.585.102 6.193a64.994 64.994 0 0011.825-1.305c3.248-.663 6.114-.066 9.375.525.98.177 1.974.385 2.963.28 1.38-.149 2.23-.829 2.53-2.093.204-.87-.28-1.062.775-1.41.863-.286 1.776.225 2.614.35.94.14 1.963.167 2.921.262 2.2.221 4.41.331 6.622.33 3.4 0-.006-1.612.59-2.905 1.398-.136 178.929.984 175.938 1.613z" fill="url(#paint0_linear)"/><defs><linearGradient id="paint0_linear" x1="-7.541" y1=".198" x2="-7.544" y2="21.459" gradientUnits="userSpaceOnUse"><stop stop-opacity=".02"/><stop offset=".435" stop-opacity=".042"/><stop offset="1"/></linearGradient></defs></svg>