<svg width="32" height="33" viewBox="0 0 32 33" fill="none" xmlns="http://www.w3.org/2000/svg">
<path d="M28.9468 21.0693L22.9201 15.0471C23.0462 14.432 23.1088 13.8056 23.1068 13.1777C23.1063 11.456 22.6725 9.76226 21.8454 8.25295C21.0183 6.74365 19.8246 5.46752 18.3746 4.54251C16.9247 3.6175 15.2653 3.07347 13.5499 2.96071C11.8345 2.84795 10.1183 3.1701 8.5601 3.89737C8.36268 3.98769 8.19027 4.1249 8.05782 4.2971C7.92538 4.4693 7.83691 4.67128 7.8001 4.88549C7.76344 5.09698 7.77823 5.31421 7.84321 5.51876C7.9082 5.72332 8.02148 5.90916 8.17343 6.06055L13.9734 11.8557L11.5734 14.2593L5.78677 8.45073C5.63432 8.30092 5.44817 8.18997 5.24398 8.12723C5.0398 8.06449 4.82354 8.05179 4.61343 8.0902C4.40088 8.12572 4.20008 8.21229 4.02824 8.34252C3.85641 8.47275 3.71865 8.64276 3.62677 8.83797C2.89813 10.4036 2.57674 12.1284 2.69249 13.8518C2.80824 15.5753 3.35736 17.2414 4.28878 18.6952C5.22021 20.1491 6.50366 21.3433 8.01976 22.167C9.53585 22.9906 11.2353 23.4169 12.9601 23.4061C13.5871 23.4081 14.2126 23.3454 14.8268 23.2191L20.8401 29.2547C20.9641 29.3798 21.1115 29.4792 21.274 29.5469C21.4365 29.6147 21.6108 29.6496 21.7868 29.6496C21.9628 29.6496 22.1371 29.6147 22.2995 29.5469C22.462 29.4792 22.6095 29.3798 22.7334 29.2547C22.8584 29.1305 22.9576 28.9828 23.0253 28.8201C23.093 28.6574 23.1278 28.4829 23.1278 28.3066C23.1278 28.1303 23.093 27.9558 23.0253 27.7931C22.9576 27.6304 22.8584 27.4827 22.7334 27.3585L16.2001 20.8156C16.0368 20.6532 15.8344 20.5358 15.6124 20.475C15.3904 20.4142 15.1565 20.4119 14.9334 20.4684C14.2897 20.6411 13.6265 20.7308 12.9601 20.7355C11.9628 20.7443 10.9737 20.5554 10.0496 20.1797C9.12556 19.804 8.28486 19.2489 7.57595 18.5464C6.86704 17.8439 6.30393 17.0078 5.91906 16.0864C5.53418 15.165 5.33515 14.1765 5.33343 13.1777C5.33171 12.7304 5.36739 12.2837 5.4401 11.8424L10.6668 17.0901C10.7907 17.2153 10.9382 17.3146 11.1007 17.3824C11.2631 17.4502 11.4374 17.4851 11.6134 17.4851C11.7894 17.4851 11.9637 17.4502 12.1262 17.3824C12.2887 17.3146 12.4362 17.2153 12.5601 17.0901L16.8001 12.8038C17.0404 12.5548 17.1748 12.2221 17.1748 11.8758C17.1748 11.5295 17.0404 11.1967 16.8001 10.9477L11.6134 5.71337C12.0542 5.64128 12.5002 5.60556 12.9468 5.60655C14.9495 5.61009 16.869 6.40932 18.2839 7.8288C19.6988 9.24828 20.4934 11.172 20.4934 13.1777C20.4888 13.8451 20.3992 14.5092 20.2268 15.1539C20.1703 15.3774 20.1726 15.6116 20.2333 15.8339C20.2941 16.0562 20.4113 16.259 20.5734 16.4225L27.1068 22.9654C27.3578 23.2169 27.6984 23.3581 28.0534 23.3581C28.4085 23.3581 28.749 23.2169 29.0001 22.9654C29.2512 22.714 29.3922 22.3729 29.3922 22.0174C29.3922 21.6618 29.2512 21.3207 29.0001 21.0693H28.9468Z" fill="#A276FF"/>
</svg>
