<svg viewBox="0 0 124 125"  fill="none" xmlns="http://www.w3.org/2000/svg"><path fill-rule="evenodd" clip-rule="evenodd" d="M107.52 22.2C96.96 7.4 81.68 0 61.68 0c-20 0-35.28 7.4-45.84 22.2C5.28 37 0 58.48 0 86.64c0 14.002 1.291 26.352 3.873 37.049 0 0 .47.078.731.109 4.558.52 9.365-.01 13.669-1.669 1.03-.397 2.102-.86 3.195-.704 2.005.285 3.337 2.536 5.356 2.698 1.946.157 3.55-1.701 5.499-1.806.519-.028 1.024.077 1.524.22-2.241-9.313-3.367-21.27-3.367-35.897 0-21.76 2.48-37.6 7.44-47.52 4.96-9.92 12.88-14.88 23.76-14.88S80.48 29.16 85.44 39c4.96 9.84 7.44 25.72 7.44 47.64 0 15.164-1.208 27.462-3.616 36.915a70.945 70.945 0 006.308-1.11c1.912-.43 3.304.087 5.126.075 2.158-.012 4.303-.023 6.461.047l12.465.404c2.491-10.543 3.736-22.654 3.736-36.331 0-28.16-5.279-49.64-15.84-64.44z" fill="currentColor"/></svg>